<svg xmlns="http://www.w3.org/2000/svg" viewBox="0 0 360.21 401.49" width="360.21" height="401.49"><path d="M-206.45-185.81h773.12v773.12h-773.12z" fill="none"/><path d="M360.21 341.44c0 33.03-24.23 60.05-53.84 60.05H53.84C24.23 401.49 0 374.47 0 341.44c0-20.22 9.09-38.2 22.93-49.09l134.37-120c2.5-2.14 5.74 1.31 3.94 4.19l-49.29 98.69c-1.38 2.76.41 6.16 3.25 6.16h191.18c29.61 0 53.83 27.03 53.83 60.05zm0-281.39c0 20.22-9.09 38.2-22.93 49.09l-134.37 120c-2.5 2.14-5.74-1.31-3.94-4.19l49.29-98.69c1.38-2.76-.41-6.16-3.25-6.16H53.84C24.23 120.1 0 93.08 0 60.05S24.23 0 53.84 0h252.54c29.61 0 53.83 27.02 53.83 60.05z" fill="#fff"/></svg>