<svg xmlns="http://www.w3.org/2000/svg" viewBox="0 0 82.779 62" width="82.779" height="62"><path d="M41.4 62c-17.6 0-32-13.9-32-31v-.8L.8 20.4c-.8-.9-1-2.1-.6-3.2s1.3-1.9 2.4-2.1l13.1-2.6.2-.3C22.1 4.4 31.4 0 41.4 0s19.3 4.4 25.4 12.2l.2.3L80.2 15c1.1.2 2 1 2.4 2.1.4 1.1.1 2.3-.6 3.2l-8.6 9.9v.8c0 17.1-14.4 31-32 31zm12.3-28c.7 0 1.3.2 2 .3.6.1 1.1.3 1.7.3 2.4 0 2.4-2.7 2.4-3.6 0-4.9-2.6-8.8-6-8.8s-6 3.9-6 8.8c0 .9 0 3.6 2.4 3.6.5 0 1.1-.1 1.7-.3.4-.1 1.1-.3 1.8-.3zm-24.5 0c.7 0 1.3.2 2 .3.6.1 1.1.3 1.7.3 2.4 0 2.4-2.7 2.4-3.6 0-4.9-2.6-8.8-6-8.8s-6 3.9-6 8.8c0 .9 0 3.6 2.4 3.6.5 0 1.1-.1 1.7-.3.4-.1 1.1-.3 1.8-.3z"/><path d="M39.73 61.892c-5.107-.268-10.59-1.924-14.927-4.51-2.998-1.789-6.379-4.697-8.48-7.296-2.085-2.58-4.123-6.196-5.155-9.145-.921-2.634-1.617-6.257-1.634-8.508-.018-2.365.263-1.906-4.488-7.31C2.703 22.458.634 20.012.45 19.688c-.897-1.567.06-3.865 1.836-4.41.28-.086 3.382-.721 6.894-1.411l6.386-1.255.723-.82c3.339-3.79 6.529-6.312 10.454-8.267C33.903-.043 41.97-.867 49.826 1.168c6.32 1.637 12.408 5.512 16.375 10.422l.793.982 6.797 1.277c7.742 1.454 7.779 1.467 8.495 2.837.542 1.037.544 1.905.007 2.904-.22.408-2.29 2.913-4.6 5.566-4.68 5.374-4.409 4.929-4.427 7.277-.017 2.25-.713 5.874-1.634 8.508-1.032 2.949-3.07 6.564-5.156 9.145-2.104 2.603-5.48 5.507-8.49 7.302-3.717 2.217-8.274 3.761-12.667 4.294-1.399.17-4.288.278-5.588.21zM27.223 34.41c1.524-.366 2.39-.364 4.184.006 1.633.338 2.329.282 2.944-.236 1.542-1.298 1.236-6.393-.55-9.156-2.187-3.382-5.65-3.835-8.185-1.07-1.69 1.844-2.735 5.61-2.29 8.25.215 1.27.574 1.86 1.35 2.212.774.351 1.059.35 2.547-.006zm24.528 0c1.538-.369 2.31-.364 4.314.026l1.621.316.711-.352c.566-.28.785-.5 1.074-1.078.327-.655.361-.888.348-2.395-.018-2.069-.316-3.478-1.068-5.046-1.558-3.248-4.402-4.531-7.08-3.194-.89.445-2.248 1.942-2.79 3.076-.738 1.547-1.047 2.975-1.072 4.947-.024 1.913.192 2.793.834 3.396.68.639 1.413.71 3.108.304z" fill="#b3b3b3" stroke="#000" stroke-width=".549" stroke-linecap="square" paint-order="markers stroke fill"/></svg>