<svg xmlns="http://www.w3.org/2000/svg" viewBox="0 0 360.21 401.49" width="360.21" height="401.49"><path d="M-206.45-185.81h773.12v773.12h-773.12z" fill="none"/><path d="M360.21 341.44c0 33.03-24.23 60.05-53.84 60.05H53.84C24.23 401.49 0 374.47 0 341.44c0-20.22 9.09-38.2 22.93-49.09l134.37-120c2.5-2.14 5.74 1.31 3.94 4.19l-49.29 98.69c-1.38 2.76.41 6.16 3.25 6.16h191.18c29.61 0 53.83 27.03 53.83 60.05zm0-281.39c0 20.22-9.09 38.2-22.93 49.09l-134.37 120c-2.5 2.14-5.74-1.31-3.94-4.19l49.29-98.69c1.38-2.76-.41-6.16-3.25-6.16H53.84C24.23 120.1 0 93.08 0 60.05S24.23 0 53.84 0h252.54c29.61 0 53.83 27.02 53.83 60.05z" fill="#fff"/><path d="M199.486 228.375c-.535-.536 10.453-23.816 24.418-51.735 13.964-27.919 25.164-51.939 24.887-53.377-.46-2.389-9.478-2.686-103.63-3.41l-103.125-.793-8.954-4.4C-9.282 93.85-9.624 28.329 32.515 5.862l7.934-4.23h279.29l7.935 4.23c29.182 15.56 40 52.908 24.268 83.783-4.876 9.57-10.06 14.584-77.429 74.911-39.711 35.56-72.619 64.686-73.128 64.724-.51.038-1.364-.37-1.899-.905z" fill="#59a0fe" stroke="#59a0fe" stroke-width="5.998" stroke-linecap="square" paint-order="markers stroke fill"/><path d="M41.243 399.263c-26.818-8.305-43.853-37.126-39.636-67.058 2.633-18.68 8.91-27.875 34.968-51.218 92.597-82.949 122.253-108.858 123.628-108.008.901.557-9.336 22.795-23.865 51.843-13.994 27.977-25.217 52.044-24.94 53.483.459 2.388 9.478 2.685 103.629 3.41l103.125.793 8.953 4.396c42.365 20.805 42.707 86.335.569 108.802l-7.935 4.23-137.264.278c-75.496.153-139.05-.275-141.232-.95z" fill="#6f83fd" stroke="#6f83fd" stroke-width="5.998" stroke-linecap="square" paint-order="markers stroke fill"/></svg>